HIERARCHY
ROOT Hips
{
	OFFSET	0.00	0.00	0.00
	CHANNELS 6 Xposition Yposition Zposition Zrotation Xrotation Yrotation
	JOINT Spine
	{
		OFFSET	 0.00	0.01	 0.00
		CHANNELS 3 Zrotation Xrotation Yrotation
		JOINT Spine1
		{
			OFFSET	 0.00	 2.45913012437421	 0.00
			CHANNELS 3 Zrotation Xrotation Yrotation
            JOINT Neck
            {
                OFFSET	 0.00	 2.48462964506057	 0.00
                CHANNELS 3 Zrotation Xrotation Yrotation
                JOINT Head
                {
                    OFFSET	 0.00	 0.927524780924562	 0.00
                    CHANNELS 3 Zrotation Xrotation Yrotation
                    End Site 
                    {
                        OFFSET	 0.00	 1.14999962169752	 0.00
                    }
                }
            }
			JOINT LeftShoulder
			{
				OFFSET	 0.00	 2.48462964506057	 0.00
				CHANNELS 3 Zrotation Xrotation Yrotation
				JOINT LeftUpArm
				{
					OFFSET	 0.00	 1.24881979654096	 0.00
					CHANNELS 3 Zrotation Xrotation Yrotation
					JOINT LeftForeArm
					{
						OFFSET	 0.00	2.59758046908119	 0.00
						CHANNELS 3 Zrotation Xrotation Yrotation
						JOINT LeftHand
						{
							OFFSET	 0.00	2.45542024364365	 0.00
							CHANNELS 3 Zrotation Xrotation Yrotation
							JOINT LeftHandThumb 
							{
								OFFSET	 0.00	0.00	 0.00
								CHANNELS 3 Zrotation Xrotation Yrotation
								End Site
								{
									OFFSET	 0.00	0.00	1.00000003353624
								}
							}
							JOINT L_Wrist_End 
							{
								OFFSET	 0.00	0.99999967115358	 0.00
								CHANNELS 3 Zrotation Xrotation Yrotation
								End Site 
								{
									OFFSET	 0.00	 0.00	 0.00
								}
							}
						}
					}
				}
			}
			JOINT RightShoulder
			{
				OFFSET	 0.00	 2.48462964506057	 0.00
				CHANNELS 3 Zrotation Xrotation Yrotation
				JOINT RightUpArm
				{
					OFFSET	 0.00	 1.24881979654096	 0.00
					CHANNELS 3 Zrotation Xrotation Yrotation
					JOINT RightForeArm
					{
						OFFSET	 0.00	2.59758046908119	 0.00
						CHANNELS 3 Zrotation Xrotation Yrotation
						JOINT RightHand
						{
							OFFSET	 0.00	2.45542024364365	 0.00
							CHANNELS 3 Zrotation Xrotation Yrotation
							JOINT RightHandThumb 
							{
								OFFSET	 0.00	0.00	 0.00
								CHANNELS 3 Zrotation Xrotation Yrotation
								End Site
								{
									OFFSET	 0.00	0.00	1.00000003353624
								}
							}
							JOINT R_Wrist_End 
							{
								OFFSET	 0.00	0.99999967115358	 0.00
								CHANNELS 3 Zrotation Xrotation Yrotation
								End Site 
								{
									OFFSET	 0.00	 0.00	 0.00
								}
							}
						}
					}
				}
			}
		}
	}
	JOINT LeftUpLeg
	{
		OFFSET	 1.2719394002717	 0.00	 0.00
		CHANNELS 3 Zrotation Xrotation Yrotation
		JOINT LeftLowLeg
		{
			OFFSET	 0.00	-4.3429100912261	 0.00
			CHANNELS 3 Zrotation Xrotation Yrotation
			JOINT LeftFoot
			{
				OFFSET	 0.00	-4.48767017425826	 0.00
				CHANNELS 3 Zrotation Xrotation Yrotation
				JOINT LeftToeBase
                {
                    OFFSET	 0.00	0.00	 1.51507020887566
                    CHANNELS 3 Zrotation Xrotation Yrotation
                    End Site 
                    {
                        OFFSET	 0.00	0.00	 0.75000010571191
                    }
                }
			}
		}
	}
	JOINT RightUpLeg
	{
		OFFSET	 -1.2719393604653	 0.00	 0.00
		CHANNELS 3 Zrotation Xrotation Yrotation
		JOINT RightLowLeg
		{
			OFFSET	 0.00	-4.3429100912261	 0.00
			CHANNELS 3 Zrotation Xrotation Yrotation
			JOINT RightFoot
			{
				OFFSET	 0.00	-4.48767017425826	 0.00
				CHANNELS 3 Zrotation Xrotation Yrotation
				JOINT RightToeBase
                {
                    OFFSET	 0.00	0.00	 1.51507020887566
                    CHANNELS 3 Zrotation Xrotation Yrotation
                    End Site 
                    {
                        OFFSET	 0.00	0.00	 0.749999965609858
                    }
                }   
			}
		}
	}
}
MOTION 
Frames:	8 
Frame Time: 0.02 
  -0.07100379943847657 5.02968994140625 9.33072998046875 73.5511 78.8909 545.033 5.75096 -9.82834 2.56817 -10.6409 7.79134 6.21528 -21.2282 25.9489 418.746 -81.5109 -61.353 -428.757 -113.9413 -1.52909 364.711 -39.4683 5.73721 2.07976 0.0 122.143 0.0 38.814 4.12158 17.6599 0.0 0.0 0.0 0.0 0.0 0.0 113.9702 -5.30032 -359.73 50.0028 -6.88228 -357.409 0.0 30.1219 0.0 -1.38743 -6.08581 20.4287 0.0 0.0 0.0 0.0 0.0 0.0 -4.57305 -25.4166 -10.6504 0.0 30.1036 0.0 -29.4636 -7.448799 2.87263 0.0 -20.852749 0.0 5.66561 -18.648 30.4561 0.0 27.2014 0.0 28.5077 -5.6518 1.53068 0.0 -17.47673 0.0 
  -0.11479000091552734 5.002009887695312 9.331799926757812 68.7249 79.2959 547.742 5.4771 -9.72593 2.1479 -10.7816 8.30858 6.03204 -22.1667 25.9772 420.195 -81.9803 -61.8466 -429.176 -113.9244 -1.43296 365.142 -39.479 5.70172 1.69541 0.0 122.189 0.0 39.4149 4.22308 16.776 0.0 0.0 0.0 0.0 0.0 0.0 114.7415 -4.91047 -359.966 49.0562 -5.23858 -357.623 0.0 30.7904 0.0 -1.44287 -5.63553 19.9481 0.0 0.0 0.0 0.0 0.0 0.0 -5.32196 -23.6608 -12.1945 0.0 27.3377 0.0 -28.3309 -6.9461 5.46803 0.0 -20.17716 0.0 5.27566 -18.3551 32.0135 0.0 27.8059 0.0 28.7693 -5.7075996 2.20189 0.0 -17.85178 0.0 
  -0.1568280029296875 4.975920104980469 9.32593994140625 64.5383 79.8064 549.918 5.06169 -9.53772 1.56357 -10.4664 8.70336 5.76195 -23.0504 26.1924 421.435 -82.027 -62.2898 -429.497 -113.8707 -1.49699 365.445 -39.7608 5.74756 1.53982 0.0 122.143 0.0 38.8953 5.41304 18.3563 0.0 0.0 0.0 0.0 0.0 0.0 115.3265 -4.67253 -359.532 48.2718 -3.97218 -358.05 0.0 31.3387 0.0 -1.40712 -5.19835 18.7217 0.0 0.0 0.0 0.0 0.0 0.0 -5.85137 -21.9629 -12.7527 0.0 26.1665 0.0 -26.3886 -6.867901 7.89682 0.0 -21.10837 0.0 5.24026 -18.1956 33.6891 0.0 29.0055 0.0 28.9761 -5.8663006 2.79152 0.0 -18.11865 0.0 
  -0.19416900634765624 4.951900024414062 9.311920166015625 59.6594 80.1922 553.058 4.1 -9.28053 0.76911 -9.60889 8.72906 5.48022 -23.5044 26.7414 422.109 -81.4279 -62.7279 -429.268 -114.0725 -1.57864 365.548 -39.849 5.95414 1.80272 0.0 122.235 0.0 39.6564 5.35594 18.8716 0.0 0.0 0.0 0.0 0.0 0.0 115.7331 -4.77975 -358.986 47.6693 -2.76012 -358.498 0.0 31.7959 0.0 -1.38618 -4.7677 17.0708 0.0 0.0 0.0 0.0 0.0 0.0 -6.2573 -20.6617 -11.2661 0.0 25.4454 0.0 -25.0648 -7.2481003 8.40343 0.0 -20.58236 0.0 5.27533 -18.5245 34.9432 0.0 31.0857 0.0 28.6214 -6.238899 3.41745 0.0 -18.19775 0.0 
  -0.22595300674438476 4.9254998779296875 9.296669921875 52.9104 80.3632 558.362 2.76493 -8.9963 -0.146031 -8.7655 8.6297 5.19467 -23.4943 27.4154 422.204 -80.3284 -63.0762 -428.581 -114.198 -1.67983 365.385 -39.9332 6.18616 2.26498 0.0 122.251 0.0 39.8807 5.87392 19.7247 0.0 0.0 0.0 0.0 0.0 0.0 116.1709 -5.08522 -358.186 47.1666 -1.84392 -359.244 0.0 32.4032 0.0 -1.43398 -4.36228 15.6868 0.0 0.0 0.0 0.0 0.0 0.0 -6.82511 -19.5747 -9.03565 0.0 24.4728 0.0 -23.7766 -6.8346004 8.59157 0.0 -20.4714 0.0 5.0222 -19.2614 35.5883 0.0 33.728 0.0 28.4091 -6.4552994 4.45457 0.0 -18.67655 0.0 
  -0.256476993560791 4.8927099609375 9.278560180664062 43.2749 79.9661 566.757 0.97581 -8.83977 -1.02929 -8.26895 8.3737 5.0426 -22.7458 28.3999 421.48 -78.9353 -63.4042 -427.663 -113.9359 -1.65386 365.488 -40.3214 6.54985 2.70144 0.0 122.414 0.0 39.6111 6.36483 20.3475 0.0 0.0 0.0 0.0 0.0 0.0 116.5838 -5.53162 -357.783 46.9648 -0.9097 -359.603 0.0 33.0611 0.0 -1.57058 -3.98054 14.4494 0.0 0.0 0.0 0.0 0.0 0.0 -7.83658 -18.5426 -5.82535 0.0 23.029 0.0 -22.8726 -5.6546993 7.5416 0.0 -20.99576 0.0 3.77357 -21.0475 33.7162 0.0 37.3359 0.0 27.3292 -6.0146008 7.04123 0.0 -19.629921 0.0 
  -0.28393699645996096 4.858619995117188 9.254619750976563 34.2543 79.0649 574.806 -0.993014 -8.7662 -1.8776 -7.83744 7.99268 4.95937 -20.8589 29.8102 419.288 -77.2106 -63.5514 -426.339 -113.666 -1.50112 365.742 -40.4967 7.29626 3.12607 0.0 122.759 0.0 40.2279 6.50988 20.3419 0.0 0.0 0.0 0.0 0.0 0.0 116.5543 -6.05958 -357.395 47.3965 -0.41866 -359.762 0.0 33.8581 0.0 -1.70538 -3.6253 13.7098 0.0 0.0 0.0 0.0 0.0 0.0 -9.18876 -17.8053 -2.83876 0.0 21.798 0.0 -22.0886 -4.4230995 6.09583 0.0 -21.29558 0.0 2.63713 -23.2032 32.7031 0.0 41.6087 0.0 25.4592 -6.1975994 8.14218 0.0 -20.52495 0.0 
  -0.3120210075378418 4.817130126953125 9.23719970703125 27.0818 78.0036 581.524 -2.29506 -8.62122 -2.64152 -8.43915 7.51098 4.49236 -18.5917 31.3322 416.739 -75.8445 -63.7431 -425.799 -113.2885 -1.49556 365.971 -40.2218 8.13364 3.47 0.0 123.259 0.0 40.3347 7.35686 21.7379 0.0 0.0 0.0 0.0 0.0 0.0 116.8723 -6.30095 -357.406 47.8666 -0.195291 -359.782 0.0 34.7262 0.0 -1.91477 -3.35907 13.3537 0.0 0.0 0.0 0.0 0.0 0.0 -11.4054 -16.809 -4.95681 0.0 20.2068 0.0 -22.2728 -4.3712997 7.98428 0.0 -21.28746 0.0 1.30215 -24.9196 32.0483 0.0 45.1285 0.0 24.8391 -6.383301 8.9757 0.0 -21.043991 0.0 
